<svg width="18" height="9" viewBox="0 0 18 9" fill="none" xmlns="http://www.w3.org/2000/svg">
<path d="M17.6983 0.709229L11.6055 1.7669L15.5679 6.51463L17.6983 0.709229ZM8.2873 7.47282L7.87057 7.80921L8.2873 7.47282ZM9.45634 7.58788L9.79949 7.99904L9.45634 7.58788ZM5.64537 4.1999L5.22864 4.53628L5.64537 4.1999ZM0.772984 8.5049L4.80126 4.51259L4.04728 3.75182L0.0190083 7.74413L0.772984 8.5049ZM5.22864 4.53628L7.87057 7.80921L8.70402 7.13644L6.06209 3.86351L5.22864 4.53628ZM9.79949 7.99904L14.341 4.20878L13.6547 3.38644L9.11319 7.17671L9.79949 7.99904ZM7.87057 7.80921C8.34763 8.4002 9.21638 8.4857 9.79949 7.99904L9.11319 7.17671C8.9895 7.27994 8.80521 7.2618 8.70402 7.13644L7.87057 7.80921ZM4.80126 4.51259C4.92261 4.39232 5.12133 4.40334 5.22864 4.53628L6.06209 3.86351C5.55618 3.23678 4.61937 3.18484 4.04728 3.75182L4.80126 4.51259Z" fill="#00C767"/>
</svg>
