<svg width="20" height="20" viewBox="0 0 20 20" fill="none" xmlns="http://www.w3.org/2000/svg">
<path d="M2 11C1.44772 11 1 10.5523 1 10C1 9.44772 1.44772 9 2 9L2 11ZM18.7071 9.29289C19.0976 9.68342 19.0976 10.3166 18.7071 10.7071L12.3431 17.0711C11.9526 17.4616 11.3195 17.4616 10.9289 17.0711C10.5384 16.6805 10.5384 16.0474 10.9289 15.6569L16.5858 10L10.9289 4.34315C10.5384 3.95262 10.5384 3.31946 10.9289 2.92893C11.3195 2.53841 11.9526 2.53841 12.3431 2.92893L18.7071 9.29289ZM2 9L18 9L18 11L2 11L2 9Z" fill="#3A7DFF"/>
</svg>
