<svg width="50" height="51" viewBox="0 0 50 51" fill="none" xmlns="http://www.w3.org/2000/svg">
<path d="M0 8.37402C0 3.95575 3.58172 0.374023 8 0.374023H42C46.4183 0.374023 50 3.95575 50 8.37402V42.374C50 46.7923 46.4183 50.374 42 50.374H8C3.58172 50.374 0 46.7923 0 42.374V8.37402Z" fill="#FFF3DC"/>
<path d="M35.2363 32.374C36.1105 32.374 36.8058 31.8239 37.4302 31.0546C38.7082 29.48 36.6099 28.2216 35.8096 27.6054C34.996 26.9789 34.0876 26.624 33.1667 26.5407M32 24.2074C33.6108 24.2074 34.9167 22.9015 34.9167 21.2907C34.9167 19.6799 33.6108 18.374 32 18.374" stroke="#FBB529" stroke-width="2.5" stroke-linecap="round"/>
<path d="M14.7637 32.374C13.8895 32.374 13.1942 31.8239 12.5699 31.0546C11.2918 29.48 13.3902 28.2216 14.1905 27.6054C15.004 26.9789 15.9124 26.624 16.8334 26.5407M17.4167 24.2074C15.8059 24.2074 14.5001 22.9015 14.5001 21.2907C14.5001 19.6799 15.8059 18.374 17.4167 18.374" stroke="#FBB529" stroke-width="2.5" stroke-linecap="round"/>
<path d="M20.4312 29.0039C19.2391 29.741 16.1136 31.2461 18.0172 33.1295C18.9472 34.0495 19.9829 34.7075 21.285 34.7075H28.7152C30.0173 34.7075 31.053 34.0495 31.9829 33.1295C33.8866 31.2461 30.7611 29.741 29.569 29.0039C26.7735 27.2754 23.2266 27.2754 20.4312 29.0039Z" stroke="#FBB529" stroke-width="2.5" stroke-linecap="round" stroke-linejoin="round"/>
<path d="M29.0834 20.1239C29.0834 22.379 27.2552 24.2072 25.0001 24.2072C22.7449 24.2072 20.9167 22.379 20.9167 20.1239C20.9167 17.8687 22.7449 16.0405 25.0001 16.0405C27.2552 16.0405 29.0834 17.8687 29.0834 20.1239Z" stroke="#FBB529" stroke-width="2.5"/>
</svg>
