<svg width="25" height="24" viewBox="0 0 25 24" fill="none" xmlns="http://www.w3.org/2000/svg">
<path d="M20.531 9.53055L13.031 17.0306C12.9614 17.1003 12.8787 17.1556 12.7876 17.1933C12.6966 17.2311 12.599 17.2505 12.5004 17.2505C12.4019 17.2505 12.3043 17.2311 12.2132 17.1933C12.1222 17.1556 12.0394 17.1003 11.9698 17.0306L4.46979 9.53055C4.32906 9.38982 4.25 9.19895 4.25 8.99993C4.25 8.80091 4.32906 8.61003 4.46979 8.4693C4.61052 8.32857 4.80139 8.24951 5.00042 8.24951C5.19944 8.24951 5.39031 8.32857 5.53104 8.4693L12.5004 15.4396L19.4698 8.4693C19.5395 8.39962 19.6222 8.34435 19.7132 8.30663C19.8043 8.26892 19.9019 8.24951 20.0004 8.24951C20.099 8.24951 20.1965 8.26892 20.2876 8.30663C20.3786 8.34435 20.4614 8.39962 20.531 8.4693C20.6007 8.53899 20.656 8.62171 20.6937 8.71276C20.7314 8.8038 20.7508 8.90138 20.7508 8.99993C20.7508 9.09847 20.7314 9.19606 20.6937 9.2871C20.656 9.37815 20.6007 9.46087 20.531 9.53055Z" fill="black"/>
</svg>
