<svg width="25" height="24" viewBox="0 0 25 24" fill="none" xmlns="http://www.w3.org/2000/svg">
<path d="M20.531 14.4694L13.031 6.96945C12.9614 6.89971 12.8787 6.84439 12.7876 6.80665C12.6966 6.76891 12.599 6.74948 12.5004 6.74948C12.4019 6.74948 12.3043 6.76891 12.2132 6.80665C12.1222 6.84439 12.0394 6.89971 11.9698 6.96945L4.46979 14.4694C4.32906 14.6102 4.25 14.801 4.25 15.0001C4.25 15.1991 4.32906 15.39 4.46979 15.5307C4.61052 15.6714 4.80139 15.7505 5.00042 15.7505C5.19944 15.7505 5.39031 15.6714 5.53104 15.5307L12.5004 8.56038L19.4698 15.5307C19.5395 15.6004 19.6222 15.6557 19.7132 15.6934C19.8043 15.7311 19.9019 15.7505 20.0004 15.7505C20.099 15.7505 20.1965 15.7311 20.2876 15.6934C20.3786 15.6557 20.4614 15.6004 20.531 15.5307C20.6007 15.461 20.656 15.3783 20.6937 15.2872C20.7314 15.1962 20.7508 15.0986 20.7508 15.0001C20.7508 14.9015 20.7314 14.8039 20.6937 14.7129C20.656 14.6219 20.6007 14.5391 20.531 14.4694Z" fill="black"/>
</svg>
