<svg width="50" height="51" viewBox="0 0 50 51" fill="none" xmlns="http://www.w3.org/2000/svg">
<path d="M0 8.37403C0 3.95575 3.58172 0.374023 8 0.374023H41.9994C46.4177 0.374023 49.9994 3.95574 49.9994 8.37402V42.3744C49.9994 46.7927 46.4177 50.3744 41.9994 50.3744H8C3.58172 50.3744 0 46.7927 0 42.3744V8.37403Z" fill="#E5EBFF"/>
<path d="M29.2189 37.4191L29.4042 37.5505L25.9863 27.033C26.605 27.5809 27.199 28.1548 27.7665 28.7531C28.2929 29.301 28.7783 29.8851 29.2189 30.5006C29.4969 30.8933 29.7388 31.3091 29.9418 31.7432C30.1437 32.1848 30.4499 32.9751 30.4499 33.9599C30.4499 34.9467 30.1437 35.737 29.9418 36.1787C29.7388 36.612 29.4969 37.0271 29.2189 37.4191ZM29.2189 37.4191L29.4041 37.5505C29.3096 37.553 29.2147 37.5554 29.1194 37.5578C29.1528 37.5117 29.186 37.4655 29.2189 37.4191ZM18.2005 12.8754L18.2029 12.8753C20.7878 12.7003 23.3783 12.6167 25.9694 12.6245H25.9732C26.9474 12.6245 27.8566 12.6329 28.7251 12.6517L28.7256 12.6517C29.571 12.6697 30.3875 12.9423 31.0477 13.4372C33.5399 15.3114 35.048 16.8735 36.9485 19.3924C37.4257 20.0249 37.6845 20.7822 37.7041 21.5576L37.7041 21.5582C37.8082 25.6154 37.7321 29.6752 37.4761 33.7261C37.4157 34.6532 37.0111 35.5337 36.3283 36.2016C35.6443 36.8706 34.7278 37.2798 33.7477 37.3446L33.7456 37.3447C32.7148 37.4146 31.6988 37.4695 30.6496 37.5099C30.804 37.2499 30.9456 36.9826 31.0738 36.7089L31.0738 36.709L31.0787 36.6984C31.3158 36.1797 31.6999 35.2013 31.6999 33.9599C31.6999 32.7203 31.3156 31.7418 31.0787 31.2235L31.0787 31.2234L31.0741 31.2136C30.8395 30.7118 30.56 30.2316 30.2391 29.7783L30.2391 29.7783L30.2354 29.7731C29.7604 29.1096 29.2375 28.4802 28.6706 27.8899C28.0814 27.2689 27.4649 26.6732 26.823 26.1043L26.7937 26.0774L26.766 26.0521L26.7368 26.0284L26.7238 26.0178L26.7171 26.0124C25.6956 25.1356 24.386 24.6553 23.0344 24.6545H23.0337H15.7022C15.7022 24.6545 15.7022 24.6545 15.7022 24.6545C15.1908 24.6545 14.6849 24.7232 14.1981 24.8563C14.2043 22.0671 14.2951 19.2785 14.4704 16.4942C14.5307 15.5668 14.9356 14.686 15.6188 14.018C16.3031 13.3489 17.22 12.9398 18.2005 12.8754Z" stroke="#3A7DFF" stroke-width="2.5"/>
<path fill-rule="evenodd" clip-rule="evenodd" d="M16.9158 29.0763C16.7734 28.921 16.6009 28.7946 16.4083 28.7042C16.2157 28.6138 16.0067 28.5612 15.7932 28.5494C15.5797 28.5376 15.3659 28.5669 15.164 28.6356C14.9622 28.7042 14.7762 28.8109 14.6167 28.9495L14.6123 28.9558L14.6036 28.9622L14.5754 28.9897C14.4136 29.132 14.2544 29.2772 14.0978 29.425C13.7938 29.7081 13.3814 30.1012 12.9689 30.5407C12.5318 30.994 12.1284 31.477 11.7618 31.9861C11.5747 32.2502 11.4113 32.5295 11.2733 32.8208C11.1011 33.1784 11.0079 33.5671 10.9998 33.9619C10.9998 34.4205 11.1452 34.8219 11.2733 35.103C11.4101 35.3988 11.5859 35.6841 11.7618 35.9356C12.1157 36.4427 12.5585 36.9499 12.9667 37.381C13.479 37.9203 14.015 38.4378 14.5732 38.932L14.6036 38.9595L14.6123 38.9658C14.9346 39.2432 15.3609 39.3893 15.7904 39.3648C16.2199 39.3403 16.6219 39.1514 16.9087 38.8393C17.1955 38.5272 17.3438 38.1173 17.3211 37.6991C17.2984 37.281 17.1066 36.8885 16.7877 36.6076L16.7616 36.5843L16.6748 36.5061C16.221 36.0987 15.7836 35.6743 15.3635 35.234C15.0357 34.8957 14.7325 34.5356 14.456 34.1563C14.4118 34.0922 14.3698 34.0266 14.3301 33.9598C14.3626 33.907 14.4039 33.8414 14.456 33.7675C14.6796 33.4463 15.0031 33.0702 15.3635 32.6898C15.7828 32.2481 16.2203 31.823 16.6748 31.4156L16.7616 31.3374L16.7833 31.3183C16.9428 31.1797 17.0771 31.0077 17.17 30.8202C17.2629 30.6327 17.3169 30.4293 17.329 30.2215C17.3411 30.0137 17.311 29.8056 17.2405 29.6091C17.1699 29.4126 17.0582 29.2316 16.9158 29.0763ZM21.8222 29.0763C22.1098 28.7634 22.5131 28.5742 22.9438 28.5505C23.3744 28.5267 23.7971 28.6702 24.1192 28.9495C25.1656 29.8624 26.186 30.8535 26.9762 31.9861C27.1521 32.2397 27.3279 32.5228 27.4647 32.8208C27.5928 33.0997 27.7382 33.5012 27.7382 33.9619C27.7382 34.4205 27.5928 34.8219 27.4647 35.103C27.0717 35.9588 26.4161 36.6963 25.7713 37.381C25.2503 37.9304 24.7032 38.4587 24.1322 38.9595L24.1235 38.9658C23.8016 39.2463 23.3785 39.3951 22.9471 39.3719C22.5157 39.3488 22.1115 39.1597 21.8233 38.8464C21.5351 38.5332 21.3866 38.1213 21.4104 37.7014C21.4343 37.2815 21.6285 36.8881 21.9503 36.6076C22.4431 36.1723 22.9229 35.7116 23.3745 35.234C23.7479 34.8389 24.1278 34.4268 24.4079 33.9598C24.1106 33.5014 23.7642 33.075 23.3745 32.6877C22.9219 32.2114 22.4482 31.7545 21.9547 31.3183C21.6347 31.0365 21.4412 30.6435 21.416 30.2241C21.3909 29.8048 21.5381 29.3925 21.8222 29.0763Z" fill="#3A7DFF"/>
</svg>
