<svg width="50" height="51" viewBox="0 0 50 51" fill="none" xmlns="http://www.w3.org/2000/svg">
<path d="M0 8.37451C0 3.95624 3.58172 0.374512 8 0.374512H42C46.4183 0.374512 50 3.95623 50 8.37451V42.3745C50 46.7928 46.4183 50.3745 42 50.3745H8C3.58172 50.3745 0 46.7928 0 42.3745V8.37451Z" fill="#CCFDFF"/>
<path d="M37 18.5816V31.1497C37 33.3588 35.2091 35.1497 33 35.1497H21.6619C19.4527 35.1497 17.6619 33.3588 17.6619 31.1497V15.3745C17.6619 13.1654 19.4527 11.3745 21.6619 11.3745H29.5755M37 18.5816L29.5755 11.3745M37 18.5816H33.5755C31.3664 18.5816 29.5755 16.7908 29.5755 14.5816V11.3745M21.4604 22.3923H33.3741M21.4604 26.6171H30.6115M21.4604 30.5934H28.3669M14.9856 15.3508V15.3508C13.889 15.3508 13 16.2398 13 17.3365V35.3745C13 37.5837 14.7909 39.3745 17 39.3745H30.595C31.51 39.3745 32.2518 38.6327 32.2518 37.7177V37.7177" stroke="#00C8D0" stroke-width="2.5" stroke-linecap="round"/>
</svg>
