<svg width="50" height="51" viewBox="0 0 50 51" fill="none" xmlns="http://www.w3.org/2000/svg">
<path d="M0 8.37451C0 3.95624 3.58172 0.374512 8 0.374512H42C46.4183 0.374512 50 3.95623 50 8.37451V42.3745C50 46.7928 46.4183 50.3745 42 50.3745H8C3.58172 50.3745 0 46.7928 0 42.3745V8.37451Z" fill="#D4F7FF"/>
<path d="M34.3208 34.7077H34.3334M34.3208 34.7077C33.4905 35.531 31.9858 35.326 30.9306 35.326C29.6354 35.326 29.0117 35.5793 28.0873 36.5037C27.3002 37.2909 26.245 38.7077 25.0001 38.7077C23.7552 38.7077 22.7 37.2909 21.9128 36.5037C20.9885 35.5793 20.3647 35.326 19.0695 35.326C18.0143 35.326 16.5097 35.531 15.6794 34.7077C14.8425 33.8778 15.0485 32.3669 15.0485 31.3049C15.0485 29.9629 14.755 29.3458 13.7993 28.3901C12.3776 26.9685 11.6668 26.2576 11.6667 25.3744C11.6668 24.491 12.3776 23.7802 13.7992 22.3586C14.6523 21.5054 15.0485 20.6601 15.0485 19.4438C15.0485 18.3886 14.8434 16.8839 15.6667 16.0536C16.4967 15.2167 18.0075 15.4227 19.0695 15.4227C20.2858 15.4227 21.1312 15.0266 21.9843 14.1735C23.4059 12.7518 24.1168 12.041 25.0001 12.041C25.8834 12.041 26.5942 12.7518 28.0158 14.1735C28.8688 15.0264 29.7141 15.4227 30.9306 15.4227C31.9858 15.4227 33.4906 15.2176 34.3209 16.041C35.1577 16.8709 34.9517 18.3818 34.9517 19.4438C34.9517 20.7858 35.2453 21.4028 36.2009 22.3586C37.6226 23.7802 38.3334 24.491 38.3334 25.3744C38.3334 26.2576 37.6226 26.9685 36.2009 28.3901C35.2452 29.3458 34.9517 29.9629 34.9517 31.3049C34.9517 32.3669 35.1577 33.8778 34.3208 34.7077Z" stroke="#00C2EE" stroke-width="2.5"/>
<path d="M21 26.5649C21 26.5649 22.6 27.434 23.4 28.7077C23.4 28.7077 25.8 23.7077 29 22.041" stroke="#00C2EE" stroke-width="2.5" stroke-linecap="round" stroke-linejoin="round"/>
</svg>
