<svg width="50" height="51" viewBox="0 0 50 51" fill="none" xmlns="http://www.w3.org/2000/svg">
<path d="M0 8.37451C0 3.95624 3.58172 0.374512 8 0.374512H42C46.4183 0.374512 50 3.95623 50 8.37451V42.3745C50 46.7928 46.4183 50.3745 42 50.3745H8C3.58172 50.3745 0 46.7928 0 42.3745V8.37451Z" fill="#CFF9E2"/>
<path d="M23.4599 10.3745L15.7614 18.073C13.9793 19.8554 12.7508 22.1153 12.2242 24.5802C11.6975 27.0451 11.8951 29.6097 12.7932 31.9648C13.6912 34.3199 15.2514 36.365 17.2855 37.8534C19.3196 39.3417 21.7409 40.2099 24.2573 40.3533C26.7738 40.4966 29.278 39.9089 31.4679 38.661C33.6579 37.4132 35.4401 35.5585 36.5997 33.3206C37.7593 31.0826 38.2468 28.5571 38.0034 26.0483C37.76 23.5396 36.796 21.1548 35.2278 19.1816C34.2523 20.1336 33.0176 20.7768 31.6783 21.0305C30.339 21.2843 28.9547 21.1374 27.6985 20.6081C26.4423 20.0789 25.3701 19.1909 24.6162 18.0553C23.8623 16.9196 23.46 15.5869 23.4599 14.2238V10.3745Z" stroke="#00C75A" stroke-width="2.5"/>
<path d="M19.6106 33.8549L28.8488 24.6167" stroke="#00C75A" stroke-width="2.5" stroke-linecap="round"/>
<path d="M19.9956 25.3864L20.3805 25.0015L20.7655 25.3864L20.3805 25.7713L19.9956 25.3864Z" stroke="#00C75A" stroke-width="2.5"/>
<path d="M27.6941 33.0856L28.079 32.7007L28.4639 33.0856L28.079 33.4705L27.6941 33.0856Z" stroke="#00C75A" stroke-width="2.5"/>
</svg>
