<svg width="35" height="35" viewBox="0 0 35 35" fill="none" xmlns="http://www.w3.org/2000/svg">
<path d="M23.0635 11.204C23.0635 11.204 23.7872 11.204 24.5109 12.6062C24.5109 12.6062 26.8097 9.10075 28.8532 8.39966" stroke="#141B34" stroke-width="2.10329" stroke-linecap="round" stroke-linejoin="round"/>
<path d="M33.1959 10.5031C33.1959 14.3752 29.9557 17.5141 25.9588 17.5141C21.9619 17.5141 18.7217 14.3752 18.7217 10.5031C18.7217 6.6311 21.9619 3.49219 25.9588 3.49219C29.9557 3.49219 33.1959 6.6311 33.1959 10.5031Z" stroke="#141B34" stroke-width="2.10329" stroke-linecap="round"/>
<path d="M14.294 19.5654C14.7178 19.1545 14.7175 18.4886 14.2934 18.0782C13.8693 17.6676 13.1819 17.6679 12.7582 18.0788L14.294 19.5654ZM13.243 16.3123C13.0908 15.7506 12.4973 15.4147 11.9174 15.5621C11.3375 15.7095 10.9908 16.2845 11.143 16.8462L13.243 16.3123ZM6.63582 19.0721C6.63582 18.4913 6.14979 18.0204 5.55025 18.0204C4.95071 18.0204 4.46468 18.4913 4.46468 19.0721H6.63582ZM14.4691 10.1526C15.0687 10.1526 15.5547 9.68176 15.5547 9.10096C15.5547 8.52016 15.0687 8.04932 14.4691 8.04932V10.1526ZM19.9915 20.7879C20.5345 20.5419 20.7689 19.9159 20.5149 19.3898C20.2608 18.8637 19.6147 18.6367 19.0716 18.8828L19.9915 20.7879ZM30.0841 21.3302C30.0841 20.7494 29.598 20.2785 28.9985 20.2785C28.399 20.2785 27.9129 20.7494 27.9129 21.3302H30.0841ZM4.40345 12.1841L3.51278 14.8317L5.57705 15.4835L6.46774 12.8358L4.40345 12.1841ZM9.77784 21.3701C11.5427 21.3701 13.144 20.6804 14.294 19.5654L12.7582 18.0788C12.0033 18.8107 10.9496 19.2668 9.77784 19.2668V21.3701ZM11.143 16.8462C11.851 19.4598 14.3376 21.3701 17.2752 21.3701V19.2668C15.3226 19.2668 13.7001 17.9995 13.243 16.3123L11.143 16.8462ZM3.86024 18.5338C5.16603 20.2637 7.54983 21.3701 9.77784 21.3701V19.2668C8.1975 19.2668 6.48388 18.4463 5.61276 17.2923L3.86024 18.5338ZM3.51278 14.8317C3.27504 15.5384 3.06591 16.1186 3.20982 17.001L5.35435 16.6728C5.30099 16.3457 5.33286 16.2094 5.57705 15.4835L3.51278 14.8317ZM5.61276 17.2923C5.48475 17.1226 5.46497 17.0904 5.44725 17.0522C5.43133 17.018 5.3963 16.93 5.35435 16.6728L3.20982 17.001C3.26652 17.3486 3.34011 17.6416 3.46744 17.9156C3.59296 18.1858 3.75106 18.3891 3.86024 18.5338L5.61276 17.2923ZM6.46774 12.8358C6.75213 11.9905 6.93911 11.4396 7.12878 11.0356C7.30756 10.6548 7.44374 10.5073 7.56884 10.418L6.2805 8.72501C5.74676 9.10618 5.41515 9.60532 5.15247 10.1648C4.90069 10.7011 4.67256 11.3842 4.40345 12.1841L6.46774 12.8358ZM10.2089 8.04932C9.35934 8.04932 8.62895 8.04767 8.03159 8.11524C7.40499 8.18612 6.81628 8.34238 6.2805 8.72501L7.56884 10.418C7.6919 10.3301 7.87018 10.2511 8.28342 10.2043C8.72591 10.1543 9.30822 10.1526 10.2089 10.1526V8.04932ZM4.46468 19.0721V24.0577H6.63582V19.0721H4.46468ZM13.3663 32.5877H21.1824V30.4844H13.3663V32.5877ZM21.1824 32.5877C22.9943 32.5877 24.4613 32.5899 25.6136 32.4416C26.7957 32.2896 27.8086 31.9623 28.6167 31.1891L27.0911 29.6926C26.7546 30.0145 26.274 30.2349 25.3277 30.3566C24.3515 30.4821 23.0549 30.4844 21.1824 30.4844V32.5877ZM27.9129 24.0577C27.9129 25.8504 27.9106 27.0878 27.7798 28.0188C27.6534 28.918 27.4257 29.3724 27.0911 29.6926L28.6167 31.1891C29.4267 30.4141 29.7713 29.4396 29.9311 28.3024C30.0864 27.1968 30.0841 25.7903 30.0841 24.0577H27.9129ZM4.46468 24.0577C4.46468 25.7903 4.46232 27.1968 4.61767 28.3024C4.77748 29.4396 5.12204 30.4141 5.93205 31.1891L7.45772 29.6926C7.12309 29.3724 6.89532 28.918 6.76898 28.0188C6.63817 27.0878 6.63582 25.8504 6.63582 24.0577H4.46468ZM13.3663 30.4844C11.4937 30.4844 10.1972 30.4821 9.22104 30.3566C8.27476 30.2349 7.79422 30.0145 7.45772 29.6926L5.93205 31.1891C6.7402 31.9623 7.7531 32.2896 8.93525 32.4416C10.0875 32.5899 11.5544 32.5877 13.3663 32.5877V30.4844ZM14.4691 8.04932H10.2089V10.1526H14.4691V8.04932ZM17.2752 21.3701C18.2447 21.3701 19.1666 21.1618 19.9915 20.7879L19.0716 18.8828C18.5296 19.1285 17.9212 19.2668 17.2752 19.2668V21.3701ZM30.0841 24.0577V21.3302H27.9129V24.0577H30.0841Z" fill="#141B34"/>
</svg>
