<svg width="50" height="51" viewBox="0 0 50 51" fill="none" xmlns="http://www.w3.org/2000/svg">
<path d="M0 8.37451C0 3.95624 3.58172 0.374512 8 0.374512H42C46.4183 0.374512 50 3.95623 50 8.37451V42.3745C50 46.7928 46.4183 50.3745 42 50.3745H8C3.58172 50.3745 0 46.7928 0 42.3745V8.37451Z" fill="#F2E8FA"/>
<path d="M24.9999 37.0413C31.4432 37.0413 36.6666 31.818 36.6666 25.3747C36.6666 18.9314 31.4432 13.708 24.9999 13.708C18.5566 13.708 13.3333 18.9314 13.3333 25.3747C13.3333 31.818 18.5566 37.0413 24.9999 37.0413Z" stroke="#610C9F" stroke-width="2.5" stroke-linecap="round" stroke-linejoin="round"/>
<path d="M20.3333 28.8745C21.3974 30.2913 23.0916 31.2078 24.9999 31.2078C26.9082 31.2078 28.6025 30.2913 29.6666 28.8745" stroke="#610C9F" stroke-width="2.5" stroke-linecap="round" stroke-linejoin="round"/>
<path d="M22.6667 21.8743C22.6667 23.163 21.622 24.2077 20.3333 24.2077C19.0447 24.2077 18 23.163 18 21.8743C18 20.5857 19.0447 19.541 20.3333 19.541C21.622 19.541 22.6667 20.5857 22.6667 21.8743ZM22.6667 21.8743C23.3202 21.2208 24.025 20.7077 25 20.7077C25.975 20.7077 26.6798 21.2208 27.3333 21.8743M27.3333 21.8743C27.3333 23.163 28.378 24.2077 29.6667 24.2077C30.9554 24.2077 32 23.163 32 21.8743C32 20.5857 30.9554 19.541 29.6667 19.541C28.378 19.541 27.3333 20.5857 27.3333 21.8743ZM35.5 20.7077H31.6878M18.3122 20.7077H14.5" stroke="#610C9F" stroke-width="2.5" stroke-linecap="round" stroke-linejoin="round"/>
</svg>
