<svg width="50" height="51" viewBox="0 0 50 51" fill="none" xmlns="http://www.w3.org/2000/svg">
<path d="M0 8.37402C0 3.95575 3.58172 0.374023 8 0.374023H42C46.4183 0.374023 50 3.95575 50 8.37402V42.374C50 46.7923 46.4183 50.374 42 50.374H8C3.58172 50.374 0 46.7923 0 42.374V8.37402Z" fill="#FFE0E3"/>
<path d="M39 23.2742C39 21.7114 38.6922 20.164 38.0941 18.7202C37.4961 17.2764 36.6196 15.9645 35.5145 14.8595C34.4095 13.7545 33.0976 12.8779 31.6538 12.2799C30.21 11.6818 28.6626 11.374 27.0999 11.374V23.2742H39Z" fill="#FB6C77"/>
<path d="M22.3999 27.4744V27.9744H22.8999H34.2891C34.2308 29.3007 33.9413 30.6081 33.4322 31.837C32.8593 33.2201 32.0196 34.4769 30.961 35.5355C29.9024 36.5941 28.6457 37.4338 27.2625 38.0067C25.8794 38.5796 24.397 38.8745 22.8999 38.8745C19.8764 38.8745 16.9767 37.6734 14.8388 35.5355C12.7008 33.3975 11.4998 30.4979 11.4998 27.4744C11.4998 24.4509 12.7008 21.5512 14.8388 19.4132C16.8586 17.3934 19.5582 16.2098 22.3999 16.0852V27.4744Z" stroke="#FB6C77"/>
<path d="M39 23.2742C39 21.7114 38.6922 20.164 38.0941 18.7202C37.4961 17.2764 36.6196 15.9645 35.5145 14.8595C34.4095 13.7545 33.0976 12.8779 31.6538 12.2799C30.21 11.6818 28.6626 11.374 27.0999 11.374V23.2742H39Z" stroke="#FB6C77" stroke-width="2.5"/>
<path d="M22.8999 39.3745C24.4626 39.3745 26.0101 39.0667 27.4539 38.4686C28.8977 37.8706 30.2095 36.9941 31.3146 35.889C32.4196 34.784 33.2961 33.4721 33.8942 32.0283C34.4922 30.5845 34.8 29.0371 34.8 27.4744H22.8999V15.5742C19.7438 15.5742 16.7169 16.828 14.4852 19.0597C12.2535 21.2914 10.9998 24.3182 10.9998 27.4744C10.9998 30.6305 12.2535 33.6573 14.4852 35.889C16.7169 38.1207 19.7438 39.3745 22.8999 39.3745Z" stroke="#FB6C77" stroke-width="2.5"/>
</svg>
